<svg xmlns="http://www.w3.org/2000/svg" width="18" height="18" viewBox="0 0 18 18">
  <g id="그룹_4387" data-name="그룹 4387" transform="translate(-931 -14775)">
    <rect id="사각형_1235" data-name="사각형 1235" width="18" height="18" transform="translate(931 14775)" fill="none"/>
    <path id="패스_2530" data-name="패스 2530" d="M14.1,4.05v12.6h3.6V13.978a4.049,4.049,0,0,1,0-7.255V4.05Zm-1.8,0h-9V6.722a4.049,4.049,0,0,1,0,7.255V16.65h9ZM1.5,8.1V3.15a.9.9,0,0,1,.9-.9H18.6a.9.9,0,0,1,.9.9V8.1a2.25,2.25,0,1,0,0,4.5v4.95a.9.9,0,0,1-.9.9H2.4a.9.9,0,0,1-.9-.9V12.6A2.25,2.25,0,0,0,1.5,8.1Z" transform="translate(929.5 14773.75)" fill="#0f1a8d"/>
  </g>
</svg>
