<svg xmlns="http://www.w3.org/2000/svg" xmlns:xlink="http://www.w3.org/1999/xlink" width="20" height="20" viewBox="0 0 20 20">
  <defs>
    <clipPath id="clip-path">
      <rect id="사각형_1044" data-name="사각형 1044" width="20" height="20" transform="translate(0)" fill="none"/>
    </clipPath>
  </defs>
  <g id="그룹_4092" data-name="그룹 4092" transform="translate(0)">
    <g id="그룹_4091" data-name="그룹 4091" transform="translate(0)" clip-path="url(#clip-path)">
      <path id="패스_2459" data-name="패스 2459" d="M2.288,9.3A9.922,9.922,0,1,0,14.441,2.288,9.931,9.931,0,0,0,2.288,9.3Zm9.561,7.579L11.471,18.3l-.948-.254L10.9,16.63l-.989-.265-.378,1.412-.948-.254.378-1.413-1.9-.508.346-1.291L8,14.468a.539.539,0,0,0,.665-.384l1.53-5.71a.539.539,0,0,0-.384-.665l-.585-.157L9.57,6.26l1.9.508.378-1.412.948.254-.378,1.412.989.265.378-1.412.948.254-.384,1.433a3.573,3.573,0,0,1,1.186.577,2.3,2.3,0,0,1,.854,2.543A2.214,2.214,0,0,1,14.7,12.371a2.287,2.287,0,0,1,.913,2.645,2.769,2.769,0,0,1-2.552,2.019A4.039,4.039,0,0,1,11.849,16.884Zm2.466-7.752a1.207,1.207,0,0,1,.258,1.215,1.153,1.153,0,0,1-1.48.923l-1.655-.443.654-2.441,1.453.389A1.934,1.934,0,0,1,14.316,9.132ZM11.072,12.2l1.816.487a1.3,1.3,0,0,1,.964,1.729,1.4,1.4,0,0,1-1.1,1.111,1.839,1.839,0,0,1-.693-.078l-1.735-.465Z" transform="translate(-1.873 -1.873)" fill="#f28931" fill-rule="evenodd"/>
    </g>
  </g>
</svg>
