<svg xmlns="http://www.w3.org/2000/svg" xmlns:xlink="http://www.w3.org/1999/xlink" width="320" height="147" viewBox="0 0 320 147">
  <defs>
    <linearGradient id="linear-gradient" x1="1" y1="0.025" x2="0.039" y2="1" gradientUnits="objectBoundingBox">
      <stop offset="0" stop-color="#a60000"/>
      <stop offset="1"/>
    </linearGradient>
    <linearGradient id="linear-gradient-2" x1="1" y1="0.5" x2="0" y2="0.5" gradientUnits="objectBoundingBox">
      <stop offset="0" stop-color="#5a3535"/>
      <stop offset="0.219" stop-color="#fef500"/>
      <stop offset="1" stop-color="#fff700"/>
    </linearGradient>
    <linearGradient id="linear-gradient-4" x1="0.05" y1="0.28" x2="1.016" y2="1.108" gradientUnits="objectBoundingBox">
      <stop offset="0" stop-color="#ff0"/>
      <stop offset="1" stop-color="olive"/>
    </linearGradient>
    <linearGradient id="linear-gradient-5" x1="11.213" y1="0" x2="-4.261" y2="1.449" xlink:href="#linear-gradient-4"/>
  </defs>
  <g id="그룹_4384" data-name="그룹 4384" transform="translate(-20 -80)">
    <rect id="사각형_1098" data-name="사각형 1098" width="320" height="147" rx="10" transform="translate(20 80)" fill="url(#linear-gradient)"/>
    <g id="그룹_4383" data-name="그룹 4383">
      <rect id="사각형_1188" data-name="사각형 1188" width="291" height="2" rx="1" transform="translate(35 95)" fill="url(#linear-gradient-2)"/>
      <rect id="사각형_1231" data-name="사각형 1231" width="291" height="2" rx="1" transform="translate(326 212) rotate(180)" fill="url(#linear-gradient-2)"/>
    </g>
    <g id="그룹_4382" data-name="그룹 4382" transform="translate(6.882)">
      <g id="그룹_4333" data-name="그룹 4333" transform="translate(25.641 -4667.435)">
        <path id="패스_2522" data-name="패스 2522" d="M190.76,241.842c1.44,1.24,2.918,2.431,4.3,3.721a71.786,71.786,0,0,1,11.611,13.576,25.055,25.055,0,0,1,2.014,3.887c.669,1.6-1.036,3.614-2.752,3.378A1.689,1.689,0,0,1,204.7,265.4c-3.793-6.83-9.048-12.468-14.58-17.877-.8-.78-1.73-1.424-2.594-2.139a.716.716,0,0,0-1.041,0,95.106,95.106,0,0,1-26.778,14.232,93.509,93.509,0,0,1-25.734,4.943,92.366,92.366,0,0,1-37-5.713,93.365,93.365,0,0,1-24.2-13.418c-.816-.622-1.631-1.249-2.4-1.922a1.926,1.926,0,0,1-.035-3.224c1.556-1.306,3.176-2.544,4.826-3.732a94.3,94.3,0,0,1,33.686-15.578,89.211,89.211,0,0,1,52.217,3.345,103.334,103.334,0,0,1,25.4,13.734c.813.593.568.671,1.407-.023a78.649,78.649,0,0,0,12.969-13.893c1.365-1.843,2.542-3.828,3.764-5.774a1.764,1.764,0,0,1,2.308-.762c.878.366,1.907,2.076,1.3,3.114-1.01,1.717-1.827,3.555-2.921,5.214a67.993,67.993,0,0,1-11.969,13.858C192.495,240.509,191.61,241.162,190.76,241.842Zm-115.272-.026c.146.116.245.2.352.279a94.728,94.728,0,0,0,11.654,7.158c17.229,8.883,35.442,12.34,54.7,9.715a86.9,86.9,0,0,0,40.677-16.792c.144-.107.276-.232.425-.358C150.816,217.779,105.9,217.936,75.487,241.816Z" transform="translate(-60 4593)" fill-rule="evenodd" fill="url(#linear-gradient-4)"/>
        <path id="패스_2523" data-name="패스 2523" d="M176.256,270.527l3.264,4.743,3.879-4.736c-.671,0-1.2.022-1.732-.012a1.612,1.612,0,0,1-.529-.256c.167-.082.334-.232.5-.234q2.122-.03,4.245,0c.177,0,.351.17.526.262-.171.078-.35.238-.51.221A1.049,1.049,0,0,0,184.9,271q-2.1,2.583-4.237,5.133a.515.515,0,0,0-.029.759q2.608,3.74,5.174,7.507a.825.825,0,0,0,.807.434c.152-.008.313.166.47.258-.153.079-.3.224-.459.228q-2.855.075-5.712.1c-.151,0-.3-.145-.455-.223.16-.093.315-.253.48-.265.5-.035,1-.013,1.65-.013l-4.232-5.979-4.844,5.87c.217.026.345.053.473.054.472,0,.945-.029,1.414.005a2.679,2.679,0,0,1,.665.23,1.983,1.983,0,0,1-.641.261c-1.38.029-2.76.022-4.14.028a.64.64,0,0,1-.259-.006,2.424,2.424,0,0,1-.346-.244c.11-.085.237-.259.328-.242.6.117.872-.281,1.187-.668q2.495-3.071,5.017-6.119a.516.516,0,0,0,.029-.761c-1.519-2.113-3.018-4.242-4.52-6.367-.184-.26-.344-.52-.731-.5-.086,0-.18-.163-.27-.251.1-.078.193-.213.3-.223a9.384,9.384,0,0,1,.942-.01c1.537.007,3.075.007,4.612.032.171,0,.34.147.51.226a1.721,1.721,0,0,1-.526.258C177.172,270.555,176.786,270.527,176.256,270.527Z" transform="translate(-129.924 4557.175)" fill-rule="evenodd" fill="url(#linear-gradient-5)"/>
        <path id="패스_2524" data-name="패스 2524" d="M236.827,285.711c-5.5,0-8.24-5.617-7-10.193.992-3.665,3.865-5.562,7.728-5.418,5.38.2,7.241,5.093,6.831,8.525a8.484,8.484,0,0,1-2.054,4.783A6.674,6.674,0,0,1,236.827,285.711Zm5.016-8.7a8.749,8.749,0,0,0-1.156-3.884,4.311,4.311,0,0,0-7.117-.26,9.259,9.259,0,0,0,.09,9.938,3.757,3.757,0,0,0,2.13,1.523,4.082,4.082,0,0,0,4.609-1.794A9.171,9.171,0,0,0,241.842,277.014Z" transform="translate(-170.65 4557.118)" fill-rule="evenodd" fill="url(#linear-gradient-5)"/>
        <path id="패스_2525" data-name="패스 2525" d="M347.951,270.548c.216.277.335.44.464.6q1.97,2.381,3.943,4.762c.53.64.532.65-.02,1.313q-2.143,2.578-4.289,5.155c-.1.119-.19.244-.339.437h8.738c.063-.56.105-1.081.194-1.595.021-.121.2-.216.3-.324.062.127.186.26.175.381-.1,1.078-.224,2.153-.326,3.231-.037.393-.224.532-.612.537-3.737.052-7.474.12-11.211.171a1.959,1.959,0,0,1-.562-.172,2.049,2.049,0,0,1,.219-.651q2.61-3.246,5.258-6.46a.569.569,0,0,0,.018-.881c-1.661-2-3.3-4.025-4.944-6.041-.121-.149-.3-.289-.335-.457a.56.56,0,0,1,.206-.448c.1-.078.3-.031.459-.031,3.353-.023,6.706-.036,10.059-.076.444-.005.635.14.687.566.086.712.2,1.422.3,2.132l-.142.026c-.1-.333-.184-.675-.313-1a1.674,1.674,0,0,0-1.591-1.165C352.233,270.532,350.174,270.548,347.951,270.548Z" transform="translate(-250.218 4557.158)" fill-rule="evenodd" fill="url(#linear-gradient-5)"/>
        <path id="패스_2526" data-name="패스 2526" d="M297.792,270.411a10.729,10.729,0,0,0-1.3.761,9.206,9.206,0,0,0-2.792,3.86,1.7,1.7,0,0,0-.119.61q-.014,3.9-.009,7.805c0,.118.023.236.042.428.449,0,.881-.023,1.309.013.146.012.28.172.419.265-.137.076-.273.22-.409.22q-2.855.005-5.71-.034c-.132,0-.263-.16-.394-.245.13-.084.255-.23.39-.24a9.358,9.358,0,0,1,1.2,0c.308.017.435-.077.44-.406.034-2.374.138-4.749.112-7.123a7.224,7.224,0,0,0-2.337-5.479,3.842,3.842,0,0,0-3.461-1.087,1.846,1.846,0,0,1-.35,0l-.084-.151a3.2,3.2,0,0,1,.651-.428,6.091,6.091,0,0,1,7.789,3.7c.03.081.067.158.143.332.122-.194.2-.33.291-.464a8.146,8.146,0,0,1,3.6-3.244,2.2,2.2,0,0,1,2.685.453,1.412,1.412,0,0,1-.453,2.244,1.187,1.187,0,0,1-1.66-.982C297.774,271.024,297.792,270.815,297.792,270.411Z" transform="translate(-208.788 4557.973)" fill-rule="evenodd" fill="url(#linear-gradient-5)"/>
        <path id="패스_2527" data-name="패스 2527" d="M147.965,285.2a9.481,9.481,0,0,1,1.045.012c.134.015.251.166.376.256-.116.079-.231.226-.348.227q-2.67.021-5.341,0c-.118,0-.235-.145-.352-.223.124-.09.242-.248.373-.258.416-.034.835-.012,1.289-.012V271.042c-.45,0-.846.02-1.238-.011-.14-.011-.271-.146-.405-.224.139-.093.278-.264.418-.266q2.618-.026,5.236,0c.138,0,.274.178.411.273a1.435,1.435,0,0,1-.447.233,9.4,9.4,0,0,1-1.016.011Z" transform="translate(-111.217 4556.793)" fill-rule="evenodd" fill="url(#linear-gradient-5)"/>
        <path id="패스_2528" data-name="패스 2528" d="M249.5,291.986l.132-1.328a8.238,8.238,0,0,1-.074,4.137l-.129-.838h-6.776c-.036.216-.081.485-.125.755l-.226-.017c-.042-1.344-.005-2.689-.016-4.033l.246-.018c.029.165.07.329.083.5.014.187,0,.375,0,.627Z" transform="translate(-179.761 4542.333)" fill-rule="evenodd" fill="url(#linear-gradient-5)"/>
      </g>
      <g id="그룹_4381" data-name="그룹 4381" transform="translate(0 2)">
        <text id="STEWARDSHIP" transform="translate(199 182)" fill="#fff" font-size="16" font-family="OpenSans-Bold, Open Sans" font-weight="700"><tspan x="0" y="0">STEWARDSHIP</tspan></text>
        <text id="MISSIONARY" transform="translate(199 162)" fill="#fff" font-size="18" font-family="OpenSans-Bold, Open Sans" font-weight="700"><tspan x="0" y="0">MISSIONARY</tspan></text>
      </g>
      <text id="OiKONOMIA" transform="translate(109 126)" fill="#fff" font-size="23" font-family="OpenSans-Bold, Open Sans" font-weight="700"><tspan x="0" y="0">OiKONOMIA</tspan></text>
    </g>
  </g>
</svg>
