<svg xmlns="http://www.w3.org/2000/svg" width="12.947" height="14.083" viewBox="0 0 12.947 14.083">
  <g id="그룹_4211" data-name="그룹 4211" transform="translate(-161 -79)">
    <path id="패스_804" data-name="패스 804" d="M1.55,2.417a5.218,5.218,0,0,0,2.5,1.156,5.513,5.513,0,0,0,2.838-.21A5.8,5.8,0,0,0,8.933,2.154L9.984,3.205V0H6.779L7.856,1.077A4.538,4.538,0,0,1,6.411,2.259a4.511,4.511,0,0,1-2.286.525,4.68,4.68,0,0,1-2.338-.709A5.445,5.445,0,0,1,0,.236,5.129,5.129,0,0,0,1.55,2.417Z" transform="translate(163.315 89.68) rotate(-22)" fill="#4647d6"/>
    <path id="패스_806" data-name="패스 806" d="M1.55,2.417a5.218,5.218,0,0,0,2.5,1.156,5.513,5.513,0,0,0,2.838-.21A5.8,5.8,0,0,0,8.933,2.154L9.984,3.205V0H6.779L7.856,1.077A4.538,4.538,0,0,1,6.411,2.259a4.511,4.511,0,0,1-2.286.525,4.68,4.68,0,0,1-2.338-.709A5.445,5.445,0,0,1,0,.236,5.129,5.129,0,0,0,1.55,2.417Z" transform="matrix(-0.788, 0.616, -0.616, -0.788, 171.127, 81.893)" fill="#4647d6"/>
  </g>
</svg>
