<svg xmlns="http://www.w3.org/2000/svg" width="50" height="50.001" viewBox="0 0 50 50.001">
  <g id="그룹_4079" data-name="그룹 4079" transform="translate(-155 -241)">
    <path id="패스_1437" data-name="패스 1437" d="M-39.855-149.5l-2.318,4.387,9.249.234-.338-4.113Z" transform="translate(236.097 427.817)" fill="#0f1a8d"/>
    <path id="패스_1438" data-name="패스 1438" d="M-85.629-153.749l-11.241-.31v-4.4l11.8.254Z" transform="translate(253.478 430.674)" fill="#0f1a8d"/>
    <path id="패스_1524" data-name="패스 1524" d="M0,0H20.2V4.4H0Z" transform="translate(182.747 248.89)" fill="#0f1a8d"/>
    <g id="그룹_3588" data-name="그룹 3588" transform="translate(155 241)">
      <path id="패스_1439" data-name="패스 1439" d="M-60.313-160.381h7.4a1.777,1.777,0,0,1,1.515,1.973,1.777,1.777,0,0,1-1.515,1.973H-64.79A14.928,14.928,0,0,0-60.313-160.381Zm-23.668-.058a14.811,14.811,0,0,0,4.486,4H-95.259a1.777,1.777,0,0,1-1.515-1.973,1.777,1.777,0,0,1,1.515-1.973h10.9A.992.992,0,0,0-83.981-160.439Zm26.369-5.865h4.7a1.777,1.777,0,0,1,1.515,1.973,1.785,1.785,0,0,1-1.515,1.98h-6.131A14.629,14.629,0,0,0-57.611-166.3Zm-37.648,0h8.647a14.705,14.705,0,0,0,1.418,3.953H-95.259a1.785,1.785,0,0,1-1.515-1.98A1.777,1.777,0,0,1-95.259-166.3Zm37.564-5.919h4.786a1.781,1.781,0,0,1,1.515,1.977,1.777,1.777,0,0,1-1.515,1.973h-4.451c.022-.329.05-.656.05-.99a.988.988,0,0,0-.074-.362A14.775,14.775,0,0,0-57.7-172.223Zm-37.564,0h8.647a14.876,14.876,0,0,0-.3,2.959c0,.334.029.662.05.99h-8.4a1.777,1.777,0,0,1-1.515-1.973A1.781,1.781,0,0,1-95.259-172.223Zm34.9-5.915h7.452a1.777,1.777,0,0,1,1.515,1.973,1.777,1.777,0,0,1-1.515,1.973h-5.329A14.845,14.845,0,0,0-60.362-178.138Zm-34.9,0h11.321a14.762,14.762,0,0,0-2.112,3.946h-9.209a1.777,1.777,0,0,1-1.515-1.973A1.777,1.777,0,0,1-95.259-178.138Zm23.105-3.946a12.841,12.841,0,0,1,12.867,12.82,12.845,12.845,0,0,1-12.867,12.828,12.767,12.767,0,0,1-12.782-12.828A12.763,12.763,0,0,1-72.154-182.084Zm2.543-1.974h16.7a1.777,1.777,0,0,1,1.515,1.974,1.777,1.777,0,0,1-1.515,1.973h-9.233a14.671,14.671,0,0,0-8.015-3.8A1.214,1.214,0,0,1-69.611-184.057Zm0-5.919h16.7A1.777,1.777,0,0,1-51.4-188a1.777,1.777,0,0,1-1.515,1.973h-16.7A1.777,1.777,0,0,1-71.125-188,1.777,1.777,0,0,1-69.611-189.976Zm0-5.919h16.7a1.777,1.777,0,0,1,1.515,1.973,1.777,1.777,0,0,1-1.515,1.974h-16.7a1.777,1.777,0,0,1-1.514-1.974A1.777,1.777,0,0,1-69.611-195.895Zm0-5.923h16.7a1.777,1.777,0,0,1,1.515,1.973,1.781,1.781,0,0,1-1.515,1.977h-16.7a1.781,1.781,0,0,1-1.514-1.977A1.777,1.777,0,0,1-69.611-201.818Zm0-1.969a3.733,3.733,0,0,0-3.487,3.942,4.2,4.2,0,0,0,1.2,2.963,4.193,4.193,0,0,0-1.2,2.959,4.192,4.192,0,0,0,1.2,2.96A4.193,4.193,0,0,0-73.1-188a4.189,4.189,0,0,0,1.214,2.971,3.864,3.864,0,0,0-.717,1,14.65,14.65,0,0,0-9.561,3.923h-13.1a3.737,3.737,0,0,0-3.488,3.946,4.19,4.19,0,0,0,1.2,2.96,4.193,4.193,0,0,0-1.2,2.959,4.189,4.189,0,0,0,1.2,2.959,4.184,4.184,0,0,0-1.2,2.956,4.2,4.2,0,0,0,1.2,2.963,4.193,4.193,0,0,0-1.2,2.959,3.738,3.738,0,0,0,3.488,3.946h22.246a.98.98,0,0,0,.239-.031c.208.009.41.031.62.031.293,0,.579-.026.867-.043a1.013,1.013,0,0,0,.285.043H-52.91a3.738,3.738,0,0,0,3.488-3.946,4.193,4.193,0,0,0-1.2-2.959,4.2,4.2,0,0,0,1.2-2.963,4.184,4.184,0,0,0-1.2-2.956,4.189,4.189,0,0,0,1.2-2.959,4.193,4.193,0,0,0-1.2-2.959,4.19,4.19,0,0,0,1.2-2.96,4.194,4.194,0,0,0-1.2-2.959,4.2,4.2,0,0,0,1.2-2.959,4.2,4.2,0,0,0-1.2-2.96,4.193,4.193,0,0,0,1.2-2.959,4.193,4.193,0,0,0-1.2-2.959,4.192,4.192,0,0,0,1.2-2.96,4.193,4.193,0,0,0-1.2-2.959,4.2,4.2,0,0,0,1.2-2.963,3.734,3.734,0,0,0-3.488-3.942Z" transform="translate(99.085 204.125)" fill="#02132b"/>
      <path id="패스_1440" data-name="패스 1440" d="M-53.074-154.286h-18.09a1.341,1.341,0,0,1-.321-.039l-.167.01a8.183,8.183,0,0,1-1.073.011l-.182-.01a1.3,1.3,0,0,1-.267.028H-95.42a4.08,4.08,0,0,1-3.827-4.286,4.561,4.561,0,0,1,1.078-2.959,4.57,4.57,0,0,1-1.078-2.963,4.557,4.557,0,0,1,1.078-2.956,4.559,4.559,0,0,1-1.078-2.959,4.564,4.564,0,0,1,1.078-2.959,4.559,4.559,0,0,1-1.078-2.96,4.081,4.081,0,0,1,3.827-4.286h12.965a15.04,15.04,0,0,1,9.485-3.915,4.273,4.273,0,0,1,.46-.663,4.558,4.558,0,0,1-1.09-2.973,4.561,4.561,0,0,1,1.079-2.959,4.561,4.561,0,0,1-1.079-2.959,4.559,4.559,0,0,1,1.079-2.96A4.564,4.564,0,0,1-73.6-200a4.079,4.079,0,0,1,3.828-4.282h16.7A4.079,4.079,0,0,1-49.247-200a4.567,4.567,0,0,1-1.078,2.963,4.562,4.562,0,0,1,1.078,2.96,4.562,4.562,0,0,1-1.078,2.959,4.564,4.564,0,0,1,1.078,2.959,4.562,4.562,0,0,1-1.078,2.959,4.565,4.565,0,0,1,1.078,2.96,4.564,4.564,0,0,1-1.078,2.959,4.564,4.564,0,0,1,1.078,2.959,4.559,4.559,0,0,1-1.078,2.96,4.563,4.563,0,0,1,1.078,2.959,4.559,4.559,0,0,1-1.078,2.959,4.554,4.554,0,0,1,1.078,2.956,4.57,4.57,0,0,1-1.078,2.963,4.561,4.561,0,0,1,1.078,2.959A4.08,4.08,0,0,1-53.074-154.286Zm-18.335-.726.058.018a.642.642,0,0,0,.187.027h18.09a3.4,3.4,0,0,0,3.146-3.6,3.847,3.847,0,0,0-1.1-2.718l-.242-.241.242-.242a3.851,3.851,0,0,0,1.1-2.721,3.843,3.843,0,0,0-1.1-2.715l-.242-.241.242-.242a3.843,3.843,0,0,0,1.1-2.717,3.85,3.85,0,0,0-1.1-2.718l-.242-.242.242-.241a3.844,3.844,0,0,0,1.1-2.718,3.85,3.85,0,0,0-1.1-2.718l-.242-.241.242-.241a3.851,3.851,0,0,0,1.1-2.718,3.852,3.852,0,0,0-1.1-2.719l-.242-.241.242-.241a3.849,3.849,0,0,0,1.1-2.718,3.85,3.85,0,0,0-1.1-2.718l-.242-.241.242-.242a3.846,3.846,0,0,0,1.1-2.717,3.844,3.844,0,0,0-1.1-2.718l-.242-.242.242-.241a3.853,3.853,0,0,0,1.1-2.722,3.4,3.4,0,0,0-3.146-3.6h-16.7A3.4,3.4,0,0,0-72.92-200a3.855,3.855,0,0,0,1.1,2.722l.243.241-.243.242a3.847,3.847,0,0,0-1.1,2.718,3.849,3.849,0,0,0,1.1,2.717l.242.242-.242.241a3.853,3.853,0,0,0-1.1,2.718,3.849,3.849,0,0,0,1.113,2.729l.244.242-.244.242a3.494,3.494,0,0,0-.653.911l-.092.179-.2.006a14.362,14.362,0,0,0-9.338,3.832l-.1.091H-95.42a3.4,3.4,0,0,0-3.146,3.6,3.845,3.845,0,0,0,1.1,2.718l.242.241-.242.242a3.852,3.852,0,0,0-1.1,2.718,3.844,3.844,0,0,0,1.1,2.717l.242.242-.242.241a3.844,3.844,0,0,0-1.1,2.715,3.853,3.853,0,0,0,1.1,2.721l.242.242-.242.241a3.848,3.848,0,0,0-1.1,2.718,3.4,3.4,0,0,0,3.146,3.6h22.245a.633.633,0,0,0,.155-.02l.048-.012.293.016a7.536,7.536,0,0,0,.984-.011Zm18.335-1.247H-66.231l1.108-.635a14.513,14.513,0,0,0,4.376-3.856l.1-.135h7.571a2.115,2.115,0,0,1,1.855,2.313A2.115,2.115,0,0,1-53.074-156.259Zm-10.7-.681h10.7c.564,0,1.174-.624,1.174-1.632s-.61-1.632-1.174-1.632h-7.234A15.153,15.153,0,0,1-63.77-156.94Zm-8.547.681a13.159,13.159,0,0,1-13.121-13.167,13.155,13.155,0,0,1,13.121-13.159A13.2,13.2,0,0,1-59.11-169.426,13.2,13.2,0,0,1-72.317-156.259Zm0-25.646a12.474,12.474,0,0,0-12.44,12.479,12.478,12.478,0,0,0,12.44,12.487,12.52,12.52,0,0,0,12.526-12.487A12.517,12.517,0,0,0-72.317-181.9Zm-6.069,25.646H-95.42a2.115,2.115,0,0,1-1.854-2.313,2.115,2.115,0,0,1,1.854-2.313h10.9a.765.765,0,0,0,.262-.037l.238-.086.151.2a14.4,14.4,0,0,0,4.382,3.911ZM-95.42-160.2c-.564,0-1.174.624-1.174,1.632s.609,1.632,1.174,1.632h14.586a15.085,15.085,0,0,1-3.444-3.278,1.443,1.443,0,0,1-.255.014Zm42.346-1.969h-6.7l.266-.5a14.33,14.33,0,0,0,1.4-3.862l.056-.272h4.979a2.115,2.115,0,0,1,1.855,2.313A2.119,2.119,0,0,1-53.074-162.174Zm-5.575-.681h5.575c.564,0,1.174-.627,1.174-1.64s-.61-1.632-1.174-1.632H-57.5A14.973,14.973,0,0,1-58.649-162.854Zm-26.142.681H-95.42a2.119,2.119,0,0,1-1.854-2.32,2.115,2.115,0,0,1,1.854-2.313h8.925l.055.273a14.394,14.394,0,0,0,1.385,3.862Zm-10.63-3.953c-.564,0-1.174.624-1.174,1.632s.609,1.64,1.174,1.64h9.512a14.976,14.976,0,0,1-1.141-3.272Zm42.346-1.969h-4.814l.036-.538c.018-.263.037-.525.037-.792a.62.62,0,0,0-.048-.233l-.025-.12a14.415,14.415,0,0,0-.3-2.538l-.083-.408h5.2a2.117,2.117,0,0,1,1.855,2.317A2.115,2.115,0,0,1-53.074-168.1Zm-4.086-.681h4.086c.564,0,1.174-.624,1.174-1.632s-.61-1.636-1.174-1.636h-4.373a14.581,14.581,0,0,1,.238,2.19,1.3,1.3,0,0,1,.076.425C-57.134-169.209-57.145-168.991-57.16-168.776Zm-29.5.681H-95.42a2.115,2.115,0,0,1-1.854-2.313,2.117,2.117,0,0,1,1.854-2.317h9.063l-.083.408a14.6,14.6,0,0,0-.29,2.891c0,.265.018.526.037.787Zm-8.764-3.949c-.564,0-1.174.626-1.174,1.636s.609,1.632,1.174,1.632h8.036c-.014-.215-.026-.432-.026-.65a15.274,15.274,0,0,1,.227-2.619Zm42.346-1.969h-5.569l-.08-.227A14.467,14.467,0,0,0-60.8-178.1l-.41-.545h8.134a2.115,2.115,0,0,1,1.855,2.313A2.115,2.115,0,0,1-53.074-174.014Zm-5.09-.681h5.09c.564,0,1.174-.624,1.174-1.632s-.61-1.632-1.174-1.632h-6.789A15.133,15.133,0,0,1-58.164-174.7Zm-27.806.681h-9.45a2.115,2.115,0,0,1-1.854-2.313,2.115,2.115,0,0,1,1.854-2.313h12l-.408.545a14.41,14.41,0,0,0-2.063,3.855Zm-9.45-3.945c-.564,0-1.174.624-1.174,1.632s.609,1.632,1.174,1.632h8.971a15.084,15.084,0,0,1,1.688-3.265Zm42.346-1.973h-9.365l-.1-.091a14.284,14.284,0,0,0-7.829-3.708l-1.084-.147.977-.494a1.547,1.547,0,0,1,.7-.186h16.7a2.115,2.115,0,0,1,1.855,2.313A2.115,2.115,0,0,1-53.074-179.932Zm-9.1-.681h9.1c.564,0,1.174-.624,1.174-1.632s-.61-1.632-1.174-1.632h-14.8A14.982,14.982,0,0,1-62.173-180.613Zm9.1-5.238h-16.7a2.115,2.115,0,0,1-1.854-2.313,2.115,2.115,0,0,1,1.854-2.313h16.7a2.115,2.115,0,0,1,1.855,2.313A2.115,2.115,0,0,1-53.074-185.851Zm-16.7-3.945c-.564,0-1.174.624-1.174,1.632s.609,1.632,1.174,1.632h16.7c.564,0,1.174-.624,1.174-1.632s-.61-1.632-1.174-1.632Zm16.7-1.973h-16.7a2.115,2.115,0,0,1-1.854-2.312,2.115,2.115,0,0,1,1.854-2.314h16.7a2.115,2.115,0,0,1,1.855,2.314A2.115,2.115,0,0,1-53.074-191.77Zm-16.7-3.945c-.564,0-1.174.624-1.174,1.633s.609,1.632,1.174,1.632h16.7c.564,0,1.174-.624,1.174-1.632s-.61-1.633-1.174-1.633Zm16.7-1.973h-16.7A2.117,2.117,0,0,1-71.628-200a2.115,2.115,0,0,1,1.854-2.313h16.7A2.115,2.115,0,0,1-51.219-200,2.117,2.117,0,0,1-53.074-197.688Zm-16.7-3.949c-.564,0-1.174.624-1.174,1.632s.609,1.636,1.174,1.636h16.7c.564,0,1.174-.626,1.174-1.636s-.61-1.632-1.174-1.632Z" transform="translate(99.247 204.287)" fill="#02132b"/>
    </g>
    <path id="패스_2451" data-name="패스 2451" d="M12.179-8.448a3.479,3.479,0,0,1-1.262,2.8A6.271,6.271,0,0,1,7.383-4.377v2.25h-1.5V-4.333a12.2,12.2,0,0,1-4.7-.944v-2.9a12.645,12.645,0,0,0,2.3.834,12.3,12.3,0,0,0,2.4.428v-3.4L5.144-10.6a8.207,8.207,0,0,1-3.078-1.86,3.575,3.575,0,0,1-.905-2.486,3.243,3.243,0,0,1,1.246-2.617,6.331,6.331,0,0,1,3.473-1.246v-1.679h1.5v1.635a12.46,12.46,0,0,1,4.544,1.01l-1.032,2.568a11.863,11.863,0,0,0-3.512-.856v3.238a16.879,16.879,0,0,1,3.045,1.427,4.166,4.166,0,0,1,1.328,1.328A3.293,3.293,0,0,1,12.179-8.448Zm-3.3.165A.987.987,0,0,0,8.5-9.063a4.894,4.894,0,0,0-1.119-.658v2.733Q8.875-7.241,8.875-8.283ZM4.464-14.945a1.041,1.041,0,0,0,.335.8,3.974,3.974,0,0,0,1.081.642v-2.579Q4.464-15.878,4.464-14.945Z" transform="translate(175 287)" fill="#0f1a8d"/>
  </g>
</svg>
