<svg xmlns="http://www.w3.org/2000/svg" xmlns:xlink="http://www.w3.org/1999/xlink" width="23.077" height="20" viewBox="0 0 23.077 20">
  <defs>
    <radialGradient id="radial-gradient" cx="0.5" cy="0.5" r="0.713" gradientTransform="matrix(0.558, 0.83, -0.745, 0.502, 0.594, -0.166)" gradientUnits="objectBoundingBox">
      <stop offset="0" stop-color="#ff0"/>
      <stop offset="1" stop-color="#0f1a8d"/>
    </radialGradient>
  </defs>
  <path id="패스_2517" data-name="패스 2517" d="M36.769,55.692a.769.769,0,1,1,.769-.769A.77.77,0,0,1,36.769,55.692Zm-3.532,7.692H21.84l-1.351-5.853,2.6,1.113a1.537,1.537,0,0,0,1.951-.667l2.5-4.5,2.5,4.5a1.537,1.537,0,0,0,1.951.667l2.6-1.113Zm-.314,3.077H22.154V64.923H32.923ZM17.538,54.923a.769.769,0,1,1,.769.769A.77.77,0,0,1,17.538,54.923Zm10-5.385a.769.769,0,1,1-.769.769A.77.77,0,0,1,27.538,49.538Zm9.231,3.077a2.307,2.307,0,0,0-2.121,3.217l-3.264,1.4-2.731-4.914a2.308,2.308,0,1,0-2.231,0l-2.731,4.914-3.264-1.4a2.307,2.307,0,1,0-2.121,1.4,2.364,2.364,0,0,0,.518-.063l1.789,7.755v1.538A1.538,1.538,0,0,0,22.154,68H32.923a1.538,1.538,0,0,0,1.538-1.538V64.923l1.79-7.755a2.26,2.26,0,0,0,.517.063,2.308,2.308,0,0,0,0-4.615Z" transform="translate(-16 -48)" fill="url(#radial-gradient)"/>
</svg>
