<svg xmlns="http://www.w3.org/2000/svg" width="50" height="54.55" viewBox="0 0 50 54.55">
  <g id="그룹_4080" data-name="그룹 4080" transform="translate(-260 -239)">
    <g id="그룹_4078" data-name="그룹 4078" transform="translate(-7043 -6816)">
      <g id="다각형_10" data-name="다각형 10" transform="translate(7327 7063)" fill="none" stroke-linecap="round">
        <path d="M8.616,1.676a1,1,0,0,1,1.769,0l7.841,14.858A1,1,0,0,1,17.341,18H1.659a1,1,0,0,1-.884-1.467Z" stroke="none"/>
        <path d="M 9.500000953674316 3.21364688873291 L 2.487756729125977 16.50000381469727 L 16.51223945617676 16.50000381469727 L 9.500000953674316 3.21364688873291 M 9.5 1.142431259155273 C 9.848381042480469 1.142431259155273 10.19676113128662 1.320178985595703 10.38438129425049 1.675674438476563 L 18.22588157653809 16.53324317932129 C 18.57735061645508 17.19919395446777 18.09450149536133 17.9999942779541 17.34149169921875 18.00000381469727 L 1.658510208129883 18.00000381469727 C 0.9054908752441406 17.9999942779541 0.4226512908935547 17.19919395446777 0.7741203308105469 16.53324317932129 L 8.61561107635498 1.675674438476563 C 8.80323600769043 1.320178985595703 9.151618003845215 1.142431259155273 9.5 1.142431259155273 Z" stroke="none" fill="#0f1a8d"/>
      </g>
      <line id="선_180" data-name="선 180" x2="6" transform="translate(7333.5 7070.5)" fill="none" stroke="#0f1a8d" stroke-linecap="round" stroke-width="1.5"/>
      <line id="선_181" data-name="선 181" y2="11" transform="translate(7336.5 7065.5)" fill="none" stroke="#0f1a8d" stroke-linecap="round" stroke-width="1"/>
      <path id="패스_2458" data-name="패스 2458" d="M0,6.923C1.836,5.165,2.28,4.091,2.084,2.958A5.27,5.27,0,0,0,0,0" transform="translate(7339.853 7071.406) rotate(90)" fill="none" stroke="#0f1a8d" stroke-linecap="round" stroke-width="1.5"/>
    </g>
    <path id="패스_1516" data-name="패스 1516" d="M-199.111-79.74a1.7,1.7,0,0,1-1.695-1.694v-5.082a11.871,11.871,0,0,1,11.857-11.858h.991l-1.462-1.462a1.686,1.686,0,0,1-.5-1.2,1.683,1.683,0,0,1,.5-1.2,1.736,1.736,0,0,1,2.4,0l4.355,4.355a1.621,1.621,0,0,1,.211.257l.072.126a1.441,1.441,0,0,1,.086.17,1.29,1.29,0,0,1,.052.156,1.279,1.279,0,0,1,.044.16,1.667,1.667,0,0,1,0,.661l-.037.137a1.8,1.8,0,0,1-.058.178,1.566,1.566,0,0,1-.075.15,1.4,1.4,0,0,1-.081.142h0a1.665,1.665,0,0,1-.212.259l-4.355,4.355a1.734,1.734,0,0,1-2.4,0,1.683,1.683,0,0,1-.5-1.2,1.685,1.685,0,0,1,.5-1.2l1.462-1.462h-.991a8.478,8.478,0,0,0-8.467,8.468v5.082A1.7,1.7,0,0,1-199.111-79.74Z" transform="translate(462.941 341.712)" fill="#081221"/>
    <path id="패스_1517" data-name="패스 1517" d="M-144.011-56.417a1.7,1.7,0,0,0-1.694,1.695v5.081a8.478,8.478,0,0,1-8.469,8.469h-.989l1.462-1.462a1.7,1.7,0,0,0,0-2.4,1.736,1.736,0,0,0-2.4,0l-4.355,4.355-.042.045a1.716,1.716,0,0,0-.17.214,1.555,1.555,0,0,0-.084.148,1.42,1.42,0,0,0-.073.147,1.46,1.46,0,0,0-.057.175l-.038.137a1.682,1.682,0,0,0,0,.659,1.271,1.271,0,0,0,.043.16,1.425,1.425,0,0,0,.053.159,1.468,1.468,0,0,0,.084.166l.074.13a1.712,1.712,0,0,0,.167.21l4.4,4.4a1.683,1.683,0,0,0,1.2.5,1.684,1.684,0,0,0,1.2-.5,1.681,1.681,0,0,0,.5-1.2,1.681,1.681,0,0,0-.5-1.2l-1.462-1.462h.989a11.871,11.871,0,0,0,11.858-11.858v-5.081A1.7,1.7,0,0,0-144.011-56.417Z" transform="translate(450.275 326.977)" fill="#0f1a8d"/>
    <g id="사각형_1036" data-name="사각형 1036" transform="translate(283 262.5)" fill="#fff" stroke="#fff" stroke-width="1">
      <rect width="5" height="4" stroke="none"/>
      <rect x="0.5" y="0.5" width="4" height="3" fill="none"/>
    </g>
    <path id="패스_1518" data-name="패스 1518" d="M-159.221-66.324a1.7,1.7,0,0,1-1.662-1.367,1.7,1.7,0,0,1,1.335-1.991,12.84,12.84,0,0,0,10.33-12.576,12.838,12.838,0,0,0-12.824-12.824,12.841,12.841,0,0,0-12.577,10.329,1.7,1.7,0,0,1-1.991,1.335,1.7,1.7,0,0,1-1.335-1.99,16.238,16.238,0,0,1,15.9-13.064,16.232,16.232,0,0,1,16.213,16.213,16.239,16.239,0,0,1-13.064,15.9A1.71,1.71,0,0,1-159.221-66.324Zm-2.82-30.106A14.187,14.187,0,0,1-147.87-82.258a14.192,14.192,0,0,1-11.417,13.9.348.348,0,0,0-.274.407.352.352,0,0,0,.407.274,14.889,14.889,0,0,0,11.978-14.58,14.882,14.882,0,0,0-14.865-14.865,14.888,14.888,0,0,0-14.58,11.976.347.347,0,0,0,.274.408.349.349,0,0,0,.408-.273A14.191,14.191,0,0,1-162.041-96.429Z" transform="translate(455.828 340.329)" fill="#0f1a8d"/>
    <path id="패스_1519" data-name="패스 1519" d="M-187.761-41.664a16.232,16.232,0,0,1-16.213-16.213A16.231,16.231,0,0,1-187.761-74.09a16.231,16.231,0,0,1,16.213,16.213A16.232,16.232,0,0,1-187.761-41.664Zm0-31.078a14.882,14.882,0,0,0-14.865,14.865,14.883,14.883,0,0,0,14.865,14.865A14.883,14.883,0,0,0-172.9-57.877,14.882,14.882,0,0,0-187.761-72.742Zm0,29.036a14.187,14.187,0,0,1-14.171-14.171,14.187,14.187,0,0,1,14.171-14.171,14.187,14.187,0,0,1,14.171,14.171A14.187,14.187,0,0,1-187.761-43.706Zm0-26.995a12.838,12.838,0,0,0-12.824,12.824,12.838,12.838,0,0,0,12.824,12.824,12.838,12.838,0,0,0,12.824-12.824A12.838,12.838,0,0,0-187.761-70.7Z" transform="translate(463.974 332.74)" fill="#081221"/>
    <path id="패스_2452" data-name="패스 2452" d="M12.769-7.8a3.665,3.665,0,0,1-1.33,2.954A6.606,6.606,0,0,1,7.716-3.514v2.37H6.132V-3.468a12.855,12.855,0,0,1-4.949-.994V-7.515a13.321,13.321,0,0,0,2.422.879,12.96,12.96,0,0,0,2.526.451V-9.769l-.775-.3a8.646,8.646,0,0,1-3.243-1.96,3.767,3.767,0,0,1-.954-2.619,3.416,3.416,0,0,1,1.312-2.758,6.67,6.67,0,0,1,3.659-1.312v-1.769H7.716v1.723A13.127,13.127,0,0,1,12.5-17.7L11.416-15a12.5,12.5,0,0,0-3.7-.9v3.411a17.783,17.783,0,0,1,3.208,1.5,4.389,4.389,0,0,1,1.4,1.4A3.47,3.47,0,0,1,12.769-7.8Zm-3.48.173A1.04,1.04,0,0,0,8.9-8.451a5.156,5.156,0,0,0-1.179-.694v2.879Q9.288-6.532,9.288-7.63ZM4.64-14.648a1.1,1.1,0,0,0,.353.838,4.187,4.187,0,0,0,1.139.676v-2.717Q4.64-15.631,4.64-14.648Z" transform="translate(269 286)" fill="#081221"/>
  </g>
</svg>
