<svg xmlns="http://www.w3.org/2000/svg" xmlns:xlink="http://www.w3.org/1999/xlink" width="85.345" height="30" viewBox="0 0 85.345 30">
  <defs>
    <linearGradient id="linear-gradient" x1="0.05" y1="0.28" x2="1.016" y2="1.108" gradientUnits="objectBoundingBox">
      <stop offset="0" stop-color="#ff0"/>
      <stop offset="1" stop-color="olive"/>
    </linearGradient>
    <linearGradient id="linear-gradient-2" x1="11.213" y1="0" x2="-4.261" y2="1.449" xlink:href="#linear-gradient"/>
  </defs>
  <g id="그룹_4333" data-name="그룹 4333" transform="translate(-9.477 -4810.435)">
    <path id="패스_2522" data-name="패스 2522" d="M143.75,232.382c.882.759,1.787,1.489,2.636,2.279a43.962,43.962,0,0,1,7.111,8.314,15.344,15.344,0,0,1,1.234,2.38,1.634,1.634,0,0,1-1.686,2.069,1.035,1.035,0,0,1-.756-.616,48.648,48.648,0,0,0-8.929-10.948c-.489-.478-1.06-.872-1.589-1.31a.438.438,0,0,0-.637,0,58.243,58.243,0,0,1-16.4,8.716,57.266,57.266,0,0,1-15.759,3.027,56.564,56.564,0,0,1-22.66-3.5,57.176,57.176,0,0,1-14.823-8.217c-.5-.381-1-.765-1.472-1.177A1.18,1.18,0,0,1,70,231.427c.953-.8,1.945-1.558,2.955-2.285a57.748,57.748,0,0,1,20.629-9.54,54.632,54.632,0,0,1,31.977,2.049,63.281,63.281,0,0,1,15.558,8.411c.5.363.348.411.861-.014a48.164,48.164,0,0,0,7.942-8.508c.836-1.129,1.557-2.344,2.305-3.536a1.081,1.081,0,0,1,1.413-.467c.537.224,1.168,1.271.794,1.907-.618,1.052-1.119,2.177-1.789,3.193a41.638,41.638,0,0,1-7.33,8.487C144.812,231.565,144.271,231.965,143.75,232.382Zm-70.592-.016c.09.071.15.124.215.171a58.012,58.012,0,0,0,7.137,4.383,55.256,55.256,0,0,0,33.5,5.949,53.215,53.215,0,0,0,24.91-10.284c.088-.066.169-.142.26-.219C119.289,217.646,91.782,217.742,73.158,232.366Z" transform="translate(-60 4593)" fill-rule="evenodd" fill="url(#linear-gradient)"/>
    <path id="패스_2523" data-name="패스 2523" d="M174.093,270.319l2,2.9,2.375-2.9c-.411,0-.737.014-1.061-.008a.987.987,0,0,1-.324-.157c.1-.05.2-.142.308-.143q1.3-.019,2.6,0c.108,0,.215.1.322.16-.1.048-.214.146-.312.135a.643.643,0,0,0-.616.3q-1.285,1.582-2.595,3.144a.315.315,0,0,0-.018.465q1.6,2.29,3.169,4.6a.506.506,0,0,0,.494.266c.093,0,.192.1.288.158-.094.048-.186.137-.281.14q-1.748.046-3.5.063c-.092,0-.186-.089-.278-.137.1-.057.193-.155.294-.162.3-.022.612-.008,1.01-.008l-2.592-3.661-2.966,3.595c.133.016.211.032.29.033.289,0,.579-.018.866,0a1.642,1.642,0,0,1,.407.141,1.215,1.215,0,0,1-.393.16c-.845.018-1.69.014-2.536.017a.392.392,0,0,1-.158,0,1.487,1.487,0,0,1-.212-.15c.068-.052.145-.159.2-.148.368.072.534-.172.727-.409q1.528-1.881,3.072-3.748a.316.316,0,0,0,.018-.466c-.93-1.294-1.848-2.6-2.768-3.9-.112-.159-.211-.319-.448-.308-.053,0-.11-.1-.165-.154.061-.048.118-.13.183-.136a5.747,5.747,0,0,1,.577-.006c.941,0,1.883,0,2.824.02.1,0,.208.09.312.139a1.054,1.054,0,0,1-.322.158C174.654,270.336,174.418,270.319,174.093,270.319Z" transform="translate(-142.046 4550.69)" fill-rule="evenodd" fill="url(#linear-gradient-2)"/>
    <path id="패스_2524" data-name="패스 2524" d="M234,279.657c-3.367,0-5.046-3.44-4.288-6.242a4.361,4.361,0,0,1,4.733-3.318c3.295.123,4.434,3.119,4.183,5.221a5.2,5.2,0,0,1-1.258,2.929A4.087,4.087,0,0,1,234,279.657Zm3.072-5.326a5.358,5.358,0,0,0-.708-2.378,2.64,2.64,0,0,0-4.358-.159,5.67,5.67,0,0,0,.055,6.086,2.3,2.3,0,0,0,1.3.933,2.5,2.5,0,0,0,2.823-1.1A5.617,5.617,0,0,0,237.07,274.331Z" transform="translate(-189.799 4550.616)" fill-rule="evenodd" fill="url(#linear-gradient-2)"/>
    <path id="패스_2525" data-name="패스 2525" d="M346.579,270.334c.132.17.205.27.284.365l2.414,2.916c.325.392.326.4-.012.8l-2.627,3.157c-.06.073-.116.15-.207.267h5.351c.039-.343.064-.662.119-.977.013-.074.122-.133.187-.2.038.078.114.159.107.233-.059.66-.137,1.319-.2,1.978-.023.241-.137.326-.375.329-2.289.032-4.577.074-6.866.1a1.2,1.2,0,0,1-.344-.105,1.256,1.256,0,0,1,.134-.4q1.6-1.988,3.22-3.956a.349.349,0,0,0,.011-.539c-1.017-1.226-2.02-2.465-3.027-3.7-.074-.091-.184-.177-.205-.28a.343.343,0,0,1,.126-.275c.062-.048.185-.019.281-.019,2.053-.014,4.107-.022,6.16-.047.272,0,.389.086.421.346.053.436.121.871.182,1.306l-.087.016c-.063-.2-.112-.413-.192-.611a1.025,1.025,0,0,0-.974-.714C349.2,270.324,347.941,270.334,346.579,270.334Z" transform="translate(-283.055 4550.678)" fill-rule="evenodd" fill="url(#linear-gradient-2)"/>
    <path id="패스_2526" data-name="패스 2526" d="M292.735,269.8a6.568,6.568,0,0,0-.795.466,5.638,5.638,0,0,0-1.71,2.364,1.043,1.043,0,0,0-.073.374q-.009,2.39-.005,4.78c0,.073.014.145.026.262.275,0,.54-.014.8.008.09.007.171.105.257.162-.084.047-.167.134-.251.135q-1.748,0-3.5-.021c-.081,0-.161-.1-.241-.15.079-.051.156-.141.239-.147a5.724,5.724,0,0,1,.737,0c.188.01.266-.047.269-.249.021-1.454.084-2.908.069-4.362a4.424,4.424,0,0,0-1.431-3.355,2.353,2.353,0,0,0-2.12-.665,1.129,1.129,0,0,1-.214,0l-.051-.092a1.96,1.96,0,0,1,.4-.262,3.73,3.73,0,0,1,4.77,2.268c.018.049.041.1.088.2.075-.119.125-.2.178-.284a4.988,4.988,0,0,1,2.207-1.987,1.346,1.346,0,0,1,1.645.278.864.864,0,0,1-.278,1.374.727.727,0,0,1-1.017-.6C292.724,270.174,292.735,270.046,292.735,269.8Z" transform="translate(-234.557 4551.628)" fill-rule="evenodd" fill="url(#linear-gradient-2)"/>
    <path id="패스_2527" data-name="패스 2527" d="M146.174,279.512a5.8,5.8,0,0,1,.64.008c.082.009.154.1.23.157-.071.048-.142.138-.213.139q-1.635.013-3.271,0c-.072,0-.144-.089-.216-.137.076-.055.148-.152.228-.158.255-.021.512-.008.789-.008v-8.669c-.275,0-.518.012-.758-.007-.086-.007-.166-.09-.248-.137.085-.057.17-.162.256-.163q1.6-.016,3.207,0c.085,0,.168.109.252.167a.879.879,0,0,1-.274.143,5.759,5.759,0,0,1-.622.007Z" transform="translate(-119.997 4550.248)" fill-rule="evenodd" fill="url(#linear-gradient-2)"/>
    <path id="패스_2528" data-name="패스 2528" d="M246.7,291.466l.081-.813a5.045,5.045,0,0,1-.045,2.533l-.079-.513h-4.149l-.077.462-.139-.01c-.026-.823,0-1.646-.01-2.47l.151-.011c.018.1.043.2.051.3s0,.23,0,.384Z" transform="translate(-200.321 4533.596)" fill-rule="evenodd" fill="url(#linear-gradient-2)"/>
  </g>
</svg>
