<svg xmlns="http://www.w3.org/2000/svg" width="198.254" height="16" viewBox="0 0 198.254 16">
  <path id="패스_2446" data-name="패스 2446" d="M-80.961-6.84a8.054,8.054,0,0,1-1.827,5.665A6.775,6.775,0,0,1-88.027.8a6.775,6.775,0,0,1-5.239-1.98A8.086,8.086,0,0,1-95.093-6.86a7.976,7.976,0,0,1,1.832-5.66,6.853,6.853,0,0,1,5.254-1.954,6.757,6.757,0,0,1,5.233,1.97A8.075,8.075,0,0,1-80.961-6.84Zm-10.832,0a6.2,6.2,0,0,0,.944,3.746,3.3,3.3,0,0,0,2.822,1.259q3.766,0,3.766-5.005t-3.746-5.015a3.326,3.326,0,0,0-2.832,1.264A6.174,6.174,0,0,0-91.793-6.84ZM-77.885.6V-14.241h3.147V.6Zm18.822,0h-3.574l-3.888-6.254-1.33.954V.6H-71V-14.241h3.147v6.792L-66.616-9.2l4.02-5.046H-59.1l-5.178,6.569Zm15.34-7.442A8.054,8.054,0,0,1-45.55-1.175,6.775,6.775,0,0,1-50.788.8a6.775,6.775,0,0,1-5.239-1.98A8.086,8.086,0,0,1-57.854-6.86a7.976,7.976,0,0,1,1.832-5.66,6.853,6.853,0,0,1,5.254-1.954,6.757,6.757,0,0,1,5.234,1.97A8.075,8.075,0,0,1-43.722-6.84Zm-10.832,0a6.2,6.2,0,0,0,.944,3.746,3.3,3.3,0,0,0,2.822,1.259q3.767,0,3.766-5.005t-3.746-5.015A3.326,3.326,0,0,0-53.6-10.591,6.174,6.174,0,0,0-54.555-6.84ZM-27.479.6h-4l-6.457-11.228h-.091q.193,2.975.193,4.244V.6h-2.812V-14.241h3.97L-30.23-3.124h.071q-.152-2.893-.152-4.091v-7.025h2.832ZM-10.27-6.84A8.054,8.054,0,0,1-12.1-1.175,6.775,6.775,0,0,1-17.336.8a6.775,6.775,0,0,1-5.239-1.98A8.086,8.086,0,0,1-24.4-6.86a7.976,7.976,0,0,1,1.832-5.66,6.853,6.853,0,0,1,5.254-1.954,6.757,6.757,0,0,1,5.234,1.97A8.075,8.075,0,0,1-10.27-6.84Zm-10.832,0a6.2,6.2,0,0,0,.944,3.746,3.3,3.3,0,0,0,2.822,1.259q3.767,0,3.766-5.005t-3.746-5.015a3.326,3.326,0,0,0-2.832,1.264A6.174,6.174,0,0,0-21.1-6.84ZM-.91.6-4.484-11.043h-.091q.193,3.553.193,4.741V.6H-7.194V-14.241H-2.91L.6-2.891H.664l3.726-11.35H8.674V.6H5.74V-6.424q0-.5.015-1.147t.137-3.452H5.8L1.973.6ZM12.41.6V-14.241h3.147V.6Zm15.97,0L27.3-2.931H21.892L20.816.6H17.425l5.239-14.9h3.848L31.77.6ZM26.552-5.571q-1.492-4.8-1.68-5.431T24.6-12q-.335,1.3-1.919,6.426ZM53.5.6H49.912L47.9-7.2q-.112-.416-.381-1.721t-.31-1.751q-.061.548-.3,1.761t-.376,1.731L44.532.6H40.958L37.171-14.241h3.1l1.9,8.1q.5,2.244.721,3.888.061-.579.279-1.792t.411-1.883l2.162-8.315h2.975l2.162,8.315q.142.558.355,1.706t.325,1.97q.1-.792.325-1.975t.406-1.914l1.888-8.1h3.1ZM66.105.6l-.6-1.543h-.081A4.573,4.573,0,0,1,63.816.424,5.2,5.2,0,0,1,61.659.8a3.488,3.488,0,0,1-2.574-.934,3.587,3.587,0,0,1-.939-2.66A3,3,0,0,1,59.41-5.454,7.324,7.324,0,0,1,63.222-6.4l1.97-.061v-.5a1.544,1.544,0,0,0-1.767-1.726,8.05,8.05,0,0,0-3.2.822L59.2-9.957a9.227,9.227,0,0,1,4.345-1.025,5.413,5.413,0,0,1,3.5.995,3.677,3.677,0,0,1,1.218,3.025V.6Zm-.914-5.259-1.2.041a3.836,3.836,0,0,0-2.01.487,1.531,1.531,0,0,0-.66,1.36q0,1.31,1.5,1.31a2.38,2.38,0,0,0,1.721-.619,2.175,2.175,0,0,0,.645-1.645ZM74.552.6h-3.1V-15.2h3.1ZM80.9.6H77.8V-15.2h3.1Zm7.949-9.36a1.964,1.964,0,0,0-1.543.624,2.89,2.89,0,0,0-.64,1.772h4.345a2.581,2.581,0,0,0-.6-1.772A2.028,2.028,0,0,0,88.846-8.759ZM89.283.8A5.858,5.858,0,0,1,85-.708a5.728,5.728,0,0,1-1.543-4.284A6.3,6.3,0,0,1,84.882-9.4a5.079,5.079,0,0,1,3.944-1.558,5,5,0,0,1,3.746,1.371A5.185,5.185,0,0,1,93.912-5.8v1.5h-7.32a2.98,2.98,0,0,0,.782,2.061,2.751,2.751,0,0,0,2.051.741,8.514,8.514,0,0,0,1.939-.213,9.7,9.7,0,0,0,1.909-.68V0a7.271,7.271,0,0,1-1.736.6A10.946,10.946,0,0,1,89.283.8Zm11.929-2.467a6.712,6.712,0,0,0,1.949-.355v2.3A6.95,6.95,0,0,1,100.318.8a3.479,3.479,0,0,1-2.706-.939,4.088,4.088,0,0,1-.848-2.817V-8.424H95.283v-1.31l1.706-1.036.893-2.4h1.98v2.416h3.178v2.325H99.862v5.472a1.209,1.209,0,0,0,.371.975A1.462,1.462,0,0,0,101.212-1.662Z" transform="translate(95.093 15.195)" fill="#fff"/>
</svg>
