<?xml version="1.0" standalone="no"?>
<!DOCTYPE svg PUBLIC "-//W3C//DTD SVG 20010904//EN"
 "http://www.w3.org/TR/2001/REC-SVG-20010904/DTD/svg10.dtd">
<svg version="1.0" xmlns="http://www.w3.org/2000/svg"
 width="36.000000pt" height="36.000000pt" viewBox="0 0 36.000000 36.000000"
 preserveAspectRatio="xMidYMid meet">

<g transform="translate(0.000000,36.000000) scale(0.100000,-0.100000)"
fill="#000000" stroke="none">
<path d="M128 350 c-80 -24 -135 -108 -124 -188 14 -100 101 -171 194 -158 64
9 115 45 142 101 66 137 -66 289 -212 245z m51 -84 c35 -8 72 -22 82 -33 17
-17 16 -20 -39 -87 l-56 -70 -24 55 c-13 30 -33 75 -43 102 -22 55 -23 55 80
33z"/>
<path d="M154 234 c26 -23 30 -24 44 -10 20 19 17 22 -33 29 l-40 6 29 -25z"/>
<path d="M130 198 c29 -72 40 -81 39 -32 0 31 -6 44 -30 62 l-29 24 20 -54z"/>
<path d="M220 225 c-14 -16 -3 -20 19 -6 8 5 9 11 3 15 -5 3 -15 -1 -22 -9z"/>
<path d="M190 181 c-5 -11 -10 -29 -10 -41 0 -18 4 -16 30 13 17 19 30 37 30
41 0 15 -40 4 -50 -13z"/>
</g>
</svg>
